<?xml version="1.0" encoding="UTF-8" standalone="no"?>
<svg
   viewBox="0 0 570.56 133.08"
   height="133.08"
   width="570.56"
   xml:space="preserve"
   id="svg2"
   version="1.1"
   sodipodi:docname="Logo-Praxis.svg"
   inkscape:version="1.3.2 (091e20e, 2023-11-25, custom)"
   xmlns:inkscape="http://www.inkscape.org/namespaces/inkscape"
   xmlns:sodipodi="http://sodipodi.sourceforge.net/DTD/sodipodi-0.dtd"
   xmlns="http://www.w3.org/2000/svg"
   xmlns:svg="http://www.w3.org/2000/svg"
   xmlns:rdf="http://www.w3.org/1999/02/22-rdf-syntax-ns#"
   xmlns:cc="http://creativecommons.org/ns#"
   xmlns:dc="http://purl.org/dc/elements/1.1/"><sodipodi:namedview
     id="namedview1"
     pagecolor="#ffffff"
     bordercolor="#000000"
     borderopacity="0.25"
     inkscape:showpageshadow="2"
     inkscape:pageopacity="0.0"
     inkscape:pagecheckerboard="0"
     inkscape:deskcolor="#d1d1d1"
     inkscape:zoom="2.8284271"
     inkscape:cx="244.30539"
     inkscape:cy="20.32932"
     inkscape:window-width="2560"
     inkscape:window-height="1377"
     inkscape:window-x="2552"
     inkscape:window-y="-8"
     inkscape:window-maximized="1"
     inkscape:current-layer="g12" /><metadata
     id="metadata8"><rdf:RDF><cc:Work
         rdf:about=""><dc:format>image/svg+xml</dc:format><dc:type
           rdf:resource="http://purl.org/dc/dcmitype/StillImage" /></cc:Work></rdf:RDF></metadata><defs
     id="defs6" /><g
     transform="matrix(1.3333333,0,0,-1.3333333,0,133.08)"
     id="g10"><g
       transform="scale(0.1)"
       id="g12"><path
         id="path14"
         style="fill:#c10c73;fill-opacity:1;fill-rule:nonzero;stroke:none"
         d="m 346.07,659.855 h 23.618 c 57.207,0 88.574,42.813 88.574,107.403 0,40.222 -6.274,107.402 -92.633,107.402 H 346.07 Z m -22.882,236.211 h 33.585 c 85.622,0 125.848,-41.711 125.848,-125.117 0,-74.922 -36.535,-132.5 -119.574,-132.5 h -39.859 v 257.617" /><path
         id="path16"
         style="fill:#c10c73;fill-opacity:1;fill-rule:nonzero;stroke:none"
         d="m 551.27,779.805 h 31.371 c 46.132,0 48.718,42.07 48.718,49.453 0,42.441 -33.957,45.402 -50.195,45.402 H 551.27 Z m -22.879,116.261 h 59.418 c 44.652,0 67.906,-28.058 67.906,-65.703 0,-43.918 -28.785,-58.312 -50.563,-62.363 v -0.742 c 7.383,-1.477 20.297,-5.539 26.207,-22.149 l 38.75,-106.66 h -24.363 l -31.367,88.211 c -8.117,23.254 -15.5,31.738 -33.953,31.738 H 551.27 V 638.449 h -22.879 v 257.617" /><path
         id="path18"
         style="fill:#c10c73;fill-opacity:1;fill-rule:nonzero;stroke:none"
         d="m 713.285,638.449 h 28.7891 v 36.1719 H 713.285 Z" /><path
         id="path20"
         style="fill:#c10c73;fill-opacity:1;fill-rule:nonzero;stroke:none"
         d="m 869.078,674.621 c 17.715,-15.871 38.75,-17.344 45.395,-17.344 41.332,0 46.5,36.903 46.5,46.504 0,29.891 -17.715,42.071 -48.715,62.735 -35.797,24.355 -46.5,40.605 -46.5,69.754 0,57.207 52.035,62.375 67.168,62.375 20.668,0 34.691,-5.911 40.594,-8.125 l -1.102,-25.832 c -9.965,5.91 -21.777,12.55 -40.969,12.55 -14.765,0 -41.336,-7.754 -41.336,-37.648 0,-25.457 13.285,-35.43 35.43,-51.668 45.766,-33.586 59.789,-45.391 59.789,-80.82 0,-43.184 -29.527,-71.231 -69.012,-71.231 -15.871,0 -35.429,3.692 -48.718,12.176 l 1.476,26.574" /><path
         id="path22"
         style="fill:#c10c73;fill-opacity:1;fill-rule:nonzero;stroke:none"
         d="m 1061.73,730.715 h 88.94 l -43.55,140.984 h -0.73 z m 32.85,165.351 h 24.36 l 85.62,-257.617 h -24.36 l -22.51,70.86 h -102.6 l -23.25,-70.86 h -22.88 l 85.62,257.617" /><path
         id="path24"
         style="fill:#c10c73;fill-opacity:1;fill-rule:nonzero;stroke:none"
         d="m 1261.76,659.855 h 32.48 c 49.82,0 52.04,41.336 52.04,49.454 0,30.273 -17.72,52.039 -49.46,52.039 h -35.06 z m 0,122.899 h 31.37 c 26.94,0 47.61,17.355 47.61,47.98 0,24.356 -13.28,43.926 -46.87,43.926 h -32.11 z m -22.88,113.312 h 60.16 c 45.02,0 66.06,-30.644 66.06,-62.382 0,-38.379 -24.36,-53.149 -40.6,-59.786 v -0.742 c 23.63,-6.64 46.13,-25.097 46.13,-62.734 0,-71.973 -69.01,-71.973 -87.46,-71.973 h -44.29 v 257.617" /><path
         id="path26"
         style="fill:#c10c73;fill-opacity:1;fill-rule:nonzero;stroke:none"
         d="m 1423.41,638.449 h 22.8789 V 896.066 H 1423.41 Z" /><path
         id="path28"
         style="fill:#c10c73;fill-opacity:1;fill-rule:nonzero;stroke:none"
         d="m 1505.34,896.066 h 29.52 L 1643,667.238 h 0.74 v 228.828 h 21.41 V 638.449 h -29.53 l -108.13,227.344 h -0.74 V 638.449 h -21.41 v 257.617" /><path
         id="path30"
         style="fill:#c10c73;fill-opacity:1;fill-rule:nonzero;stroke:none"
         d="m 1724.19,896.066 h 109.25 V 874.66 h -86.37 v -91.535 h 82.31 v -21.406 h -82.31 V 659.855 h 90.42 v -21.406 h -113.3 v 257.617" /><path
         id="path32"
         style="fill:#c10c73;fill-opacity:1;fill-rule:nonzero;stroke:none"
         d="m 1976.62,896.066 h 35.07 l 71.59,-223.652 h 0.74 l 71.6,223.652 h 35.06 V 638.449 h -21.41 V 874.66 h -0.74 l -76.02,-236.211 h -17.34 l -76.41,236.211 h -0.74 V 638.449 h -21.4 v 257.617" /><path
         id="path34"
         style="fill:#c10c73;fill-opacity:1;fill-rule:nonzero;stroke:none"
         d="m 2249.72,896.066 h 109.26 V 874.66 h -86.37 v -91.535 h 82.31 v -21.406 h -82.31 V 659.855 h 90.43 v -21.406 h -113.32 v 257.617" /><path
         id="path36"
         style="fill:#c10c73;fill-opacity:1;fill-rule:nonzero;stroke:none"
         d="M 2391.44,896.066 H 2533.9 V 874.66 h -59.78 V 638.449 h -22.89 V 874.66 h -59.79 v 21.406" /><path
         id="path38"
         style="fill:#c10c73;fill-opacity:1;fill-rule:nonzero;stroke:none"
         d="m 2554.57,661.34 110.35,213.32 h -106.66 v 21.406 h 131.01 V 873.918 L 2578.55,659.855 h 113.3 v -21.406 h -137.28 v 22.891" /><path
         id="path40"
         style="fill:#c10c73;fill-opacity:1;fill-rule:nonzero;stroke:none"
         d="m 2734.66,896.066 h 29.53 l 108.13,-228.828 h 0.74 v 228.828 h 21.41 V 638.449 h -29.53 l -108.13,227.344 h -0.74 V 638.449 h -21.41 v 257.617" /><path
         id="path42"
         style="fill:#c10c73;fill-opacity:1;fill-rule:nonzero;stroke:none"
         d="m 2953.51,896.066 h 109.24 V 874.66 h -86.37 v -91.535 h 82.31 v -21.406 h -82.31 V 659.855 h 90.43 v -21.406 h -113.3 v 257.617" /><path
         id="path44"
         style="fill:#c10c73;fill-opacity:1;fill-rule:nonzero;stroke:none"
         d="m 3140.25,779.805 h 31.39 c 46.13,0 48.71,42.07 48.71,49.453 0,42.441 -33.97,45.402 -50.2,45.402 h -29.9 z m -22.87,116.261 h 59.41 c 44.67,0 67.91,-28.058 67.91,-65.703 0,-43.918 -28.79,-58.312 -50.56,-62.363 v -0.742 c 7.38,-1.477 20.31,-5.539 26.21,-22.149 l 38.75,-106.66 h -24.36 l -31.37,88.211 c -8.12,23.254 -15.5,31.738 -33.96,31.738 h -29.16 V 638.449 h -22.87 v 257.617" /><path
         id="path46"
         style="fill:#9da2a9;fill-opacity:1;fill-rule:nonzero;stroke:none"
         d="m 868.645,491.785 h 56.23 v -11.441 h -44 v -48.938 h 41.832 v -11.445 h -41.832 v -65.898 h -12.23 v 137.722" /><path
         id="path48"
         style="fill:#9da2a9;fill-opacity:1;fill-rule:nonzero;stroke:none"
         d="m 989.82,404.777 c -23.683,0 -43.609,0 -43.609,-22.89 0,-8.489 6.312,-18.547 18.551,-18.547 5.328,0 25.058,2.168 25.058,29.59 z m 10.66,-28.222 c 0,-7.492 0.59,-14.992 1.18,-22.492 h -10.262 l -0.793,14.406 h -0.394 c -6.906,-11.055 -15.191,-15.781 -28.215,-15.781 -15.586,0 -28.016,12.82 -28.016,29.199 0,32.156 34.137,32.754 48.536,32.754 h 7.304 c 0,12.625 0,30.781 -20.918,30.781 -13.418,0 -24.074,-9.473 -25.254,-10.461 l -1.777,12.238 c 9.473,5.125 16.578,8.875 27.621,8.875 30.988,0 30.988,-26.043 30.988,-33.347 v -46.172" /><path
         id="path50"
         style="fill:#9da2a9;fill-opacity:1;fill-rule:nonzero;stroke:none"
         d="m 1081.37,439.504 c -4.54,3.738 -12.23,5.125 -18.15,5.125 -15.39,0 -29.4,-10.652 -29.4,-37.293 0,-36.895 20.32,-43.215 31.18,-43.215 4.53,0 13.61,1.387 16.96,5.332 l 0.99,-13.027 c -4.93,-2.168 -12.43,-3.738 -19.54,-3.738 -21.5,0 -41.82,16.57 -41.82,51.296 0,30.782 13.61,52.09 41.63,52.09 8.09,0 14.01,-1.582 18.74,-3.554 l -0.59,-13.016" /><path
         id="path52"
         style="fill:#9da2a9;fill-opacity:1;fill-rule:nonzero;stroke:none"
         d="m 1099.92,502.043 h 11.44 v -62.148 h 0.39 c 1.98,4.335 8.88,16.179 24.87,16.179 27.82,0 27.82,-27.82 27.82,-34.531 v -67.48 h -11.45 v 67.871 c 0,6.914 0,23.488 -18.74,23.488 -14.01,0 -22.89,-13.223 -22.89,-28.809 v -62.55 h -11.44 v 147.98" /><path
         id="path54"
         style="fill:#9da2a9;fill-opacity:1;fill-rule:nonzero;stroke:none"
         d="m 1230.73,494.551 h 11.44 v -19.336 h -11.44 z m -29.6,0 h 11.45 v -19.336 h -11.45 z m 40.65,-89.774 c -23.68,0 -43.61,0 -43.61,-22.89 0,-8.489 6.32,-18.547 18.55,-18.547 5.33,0 25.06,2.168 25.06,29.59 z m 10.66,-28.222 c 0,-7.492 0.59,-14.992 1.18,-22.492 h -10.26 l -0.79,14.406 h -0.4 c -6.9,-11.055 -15.19,-15.781 -28.21,-15.781 -15.59,0 -28.02,12.82 -28.02,29.199 0,32.156 34.14,32.754 48.54,32.754 h 7.3 c 0,12.625 0,30.781 -20.92,30.781 -13.41,0 -24.07,-9.473 -25.25,-10.461 l -1.78,12.238 c 9.48,5.125 16.58,8.875 27.63,8.875 30.98,0 30.98,-26.043 30.98,-33.347 v -46.172" /><path
         id="path56"
         style="fill:#9da2a9;fill-opacity:1;fill-rule:nonzero;stroke:none"
         d="m 1278.87,423.516 c 0,10.461 -0.59,20.714 -0.79,31.172 h 10.66 c 0.2,-5.918 0.59,-11.836 0.79,-15.977 h 0.39 c 7.3,14.406 15.78,17.363 26.83,17.363 V 443.84 c -18.15,0 -26.43,-7.891 -26.43,-26.438 v -63.339 h -11.45 v 69.453" /><path
         id="path58"
         style="fill:#9da2a9;fill-opacity:1;fill-rule:nonzero;stroke:none"
         d="m 1326.23,365.508 48.14,78.527 h -46.56 v 10.653 h 58.79 v -11.446 l -48.14,-78.523 h 48.93 v -10.656 h -61.16 v 11.445" /><path
         id="path60"
         style="fill:#9da2a9;fill-opacity:1;fill-rule:nonzero;stroke:none"
         d="m 1423.3,478.371 v -23.683 h 20.52 v -10.653 h -20.52 v -65.508 c 0,-8.086 1.38,-15.187 11.05,-15.187 5.33,0 7.3,1.183 9.47,2.168 v -11.445 c -2.76,-0.985 -7.89,-1.375 -13.22,-1.375 -14.79,0 -18.74,11.433 -18.74,22.683 v 68.664 h -15 v 10.653 h 15 v 20.128 l 11.44,3.555" /><path
         id="path62"
         style="fill:#9da2a9;fill-opacity:1;fill-rule:nonzero;stroke:none"
         d="m 1462.56,454.688 h 11.45 V 354.063 h -11.45 z m -1.18,40.058 h 13.81 v -17.762 h -13.81 v 17.762" /><path
         id="path64"
         style="fill:#9da2a9;fill-opacity:1;fill-rule:nonzero;stroke:none"
         d="m 1501.83,423.516 c 0,10.461 -0.59,20.714 -0.79,31.172 h 10.65 c 0.39,-4.532 0.59,-7.489 0.79,-14.793 h 0.4 c 2.36,4.335 8.87,16.179 25.65,16.179 27.82,0 27.82,-27.82 27.82,-34.531 v -67.48 h -11.45 v 67.871 c 0,6.914 0,23.488 -18.74,23.488 -14.01,0 -22.89,-13.223 -22.89,-28.809 v -62.55 h -11.44 v 69.453" /><path
         id="path66"
         style="fill:#9da2a9;fill-opacity:1;fill-rule:nonzero;stroke:none"
         d="m 1645.66,444.035 h -15.59 v 10.653 h 15.59 v 21.515 c 0,15.184 4.14,28.211 24.67,28.211 3.94,0 6.71,-0.594 8.68,-0.984 v -11.446 c -1.97,0.789 -5.13,1.778 -9.08,1.778 -10.06,0 -12.83,-7.309 -12.83,-15.391 v -23.683 h 17.76 v -10.653 h -17.76 v -89.972 h -11.44 v 89.972" /><path
         id="path68"
         style="fill:#9da2a9;fill-opacity:1;fill-rule:nonzero;stroke:none"
         d="m 1733.07,494.551 h 11.44 v -19.336 h -11.44 z m -29.6,0 h 11.45 v -19.336 h -11.45 z m 52.69,-109.317 c 0,-10.457 0.59,-20.711 0.78,-31.171 h -10.65 c -0.4,4.542 -0.59,7.5 -0.79,14.796 h -0.39 c -1.19,-4.336 -8.88,-16.171 -25.65,-16.171 -21.91,0 -27.82,15.781 -27.82,31.765 v 70.235 h 11.44 v -67.872 c 0,-6.902 0,-23.476 18.74,-23.476 14.01,0 22.89,13.215 22.89,28.801 v 62.547 h 11.45 v -69.454" /><path
         id="path70"
         style="fill:#9da2a9;fill-opacity:1;fill-rule:nonzero;stroke:none"
         d="m 1782.99,423.516 c 0,10.461 -0.59,20.714 -0.79,31.172 h 10.65 c 0.2,-5.918 0.59,-11.836 0.79,-15.977 h 0.4 c 7.3,14.406 15.78,17.363 26.83,17.363 V 443.84 c -18.15,0 -26.44,-7.891 -26.44,-26.438 v -63.339 h -11.44 v 69.453" /><path
         id="path72"
         style="fill:#9da2a9;fill-opacity:1;fill-rule:nonzero;stroke:none"
         d="m 1887.55,491.785 h 56.23 v -11.441 h -43.99 v -48.938 h 41.83 v -11.445 h -41.83 v -65.898 h -12.24 v 137.722" /><path
         id="path74"
         style="fill:#9da2a9;fill-opacity:1;fill-rule:nonzero;stroke:none"
         d="m 1958.22,423.516 c 0,10.461 -0.59,20.714 -0.78,31.172 h 10.64 c 0.21,-5.918 0.6,-11.836 0.8,-15.977 h 0.39 c 7.31,14.406 15.78,17.363 26.84,17.363 V 443.84 c -18.16,0 -26.45,-7.891 -26.45,-26.438 v -63.339 h -11.44 v 69.453" /><path
         id="path76"
         style="fill:#9da2a9;fill-opacity:1;fill-rule:nonzero;stroke:none"
         d="m 2060.07,404.777 c -23.68,0 -43.61,0 -43.61,-22.89 0,-8.489 6.32,-18.547 18.55,-18.547 5.34,0 25.06,2.168 25.06,29.59 z m 10.66,-28.222 c 0,-7.492 0.59,-14.992 1.18,-22.492 h -10.25 l -0.81,14.406 h -0.39 c -6.9,-11.055 -15.19,-15.781 -28.21,-15.781 -15.58,0 -28.02,12.82 -28.02,29.199 0,32.156 34.14,32.754 48.54,32.754 h 7.3 c 0,12.625 0,30.781 -20.91,30.781 -13.42,0 -24.08,-9.473 -25.26,-10.461 l -1.78,12.238 c 9.48,5.125 16.58,8.875 27.62,8.875 30.99,0 30.99,-26.043 30.99,-33.347 v -46.172" /><path
         id="path78"
         style="fill:#9da2a9;fill-opacity:1;fill-rule:nonzero;stroke:none"
         d="m 2161.68,385.234 c 0,-10.457 0.6,-20.711 0.8,-31.171 h -10.67 c -0.39,4.542 -0.58,7.5 -0.78,14.796 h -0.39 c -1.19,-4.336 -8.89,-16.171 -25.65,-16.171 -21.91,0 -27.83,15.781 -27.83,31.765 v 70.235 h 11.45 v -67.872 c 0,-6.902 0,-23.476 18.74,-23.476 14.01,0 22.89,13.215 22.89,28.801 v 62.547 h 11.44 v -69.454" /><path
         id="path80"
         style="fill:#9da2a9;fill-opacity:1;fill-rule:nonzero;stroke:none"
         d="m 2238.82,411.281 c 0,26.641 -11.25,34.141 -20.51,34.141 -15.59,0 -22.89,-21.113 -22.89,-34.141 z m -43.4,-10.656 c 0,-37.285 23.87,-37.285 28.41,-37.285 6.51,0 15.98,3.156 21.7,8.281 l 0.6,-13.211 c -4.74,-2.57 -11.45,-5.722 -23.49,-5.722 -39.46,0 -39.46,41.628 -39.46,51.687 0,37.883 18.75,51.699 35.71,51.699 29.21,0 32.17,-30.976 32.17,-55.449 h -55.64" /><path
         id="path82"
         style="fill:#9da2a9;fill-opacity:1;fill-rule:nonzero;stroke:none"
         d="m 2272.56,423.516 c 0,10.461 -0.59,20.714 -0.79,31.172 h 10.66 c 0.4,-4.532 0.59,-7.489 0.79,-14.793 h 0.39 c 2.37,4.335 8.89,16.179 25.65,16.179 27.82,0 27.82,-27.82 27.82,-34.531 v -67.48 h -11.44 v 67.871 c 0,6.914 0,23.488 -18.74,23.488 -14.01,0 -22.89,-13.223 -22.89,-28.809 v -62.55 h -11.45 v 69.453" /><path
         id="path84"
         style="fill:#9da2a9;fill-opacity:1;fill-rule:nonzero;stroke:none"
         d="m 2363.92,502.043 h 11.45 v -62.148 h 0.39 c 1.97,4.335 8.87,16.179 24.86,16.179 27.82,0 27.82,-27.82 27.82,-34.531 v -67.48 H 2417 v 67.871 c 0,6.914 0,23.488 -18.75,23.488 -14.01,0 -22.88,-13.223 -22.88,-28.809 v -62.55 h -11.45 v 147.98" /><path
         id="path86"
         style="fill:#9da2a9;fill-opacity:1;fill-rule:nonzero;stroke:none"
         d="m 2505.59,411.281 c 0,26.641 -11.25,34.141 -20.52,34.141 -15.58,0 -22.89,-21.113 -22.89,-34.141 z m -43.41,-10.656 c 0,-37.285 23.88,-37.285 28.42,-37.285 6.5,0 15.98,3.156 21.7,8.281 l 0.6,-13.211 c -4.74,-2.57 -11.45,-5.722 -23.49,-5.722 -39.46,0 -39.46,41.628 -39.46,51.687 0,37.883 18.75,51.699 35.71,51.699 29.21,0 32.17,-30.976 32.17,-55.449 h -55.65" /><path
         id="path88"
         style="fill:#9da2a9;fill-opacity:1;fill-rule:nonzero;stroke:none"
         d="m 2540.32,454.688 h 11.44 V 354.063 h -11.44 z m -1.18,40.058 h 13.8 v -17.762 h -13.8 v 17.762" /><path
         id="path90"
         style="fill:#9da2a9;fill-opacity:1;fill-rule:nonzero;stroke:none"
         d="m 2580.56,354.063 h 11.4531 v 147.98 H 2580.56 Z" /><path
         id="path92"
         style="fill:#9da2a9;fill-opacity:1;fill-rule:nonzero;stroke:none"
         d="m 2620.22,502.043 h 11.44 v -87.805 l 38.09,40.45 h 14.6 l -42.62,-44.59 46.57,-56.035 h -15.39 l -40.84,51.105 h -0.41 v -51.105 h -11.44 v 147.98" /><path
         id="path94"
         style="fill:#9da2a9;fill-opacity:1;fill-rule:nonzero;stroke:none"
         d="m 2768.4,385.234 c 0,-10.457 0.59,-20.711 0.79,-31.171 h -10.65 c -0.4,4.542 -0.6,7.5 -0.79,14.796 h -0.4 c -1.18,-4.336 -8.88,-16.171 -25.65,-16.171 -21.9,0 -27.82,15.781 -27.82,31.765 v 70.235 h 11.45 v -67.872 c 0,-6.902 0,-23.476 18.74,-23.476 14.01,0 22.89,13.215 22.89,28.801 v 62.547 h 11.44 v -69.454" /><path
         id="path96"
         style="fill:#9da2a9;fill-opacity:1;fill-rule:nonzero;stroke:none"
         d="m 2795.23,423.516 c 0,10.461 -0.6,20.714 -0.79,31.172 h 10.65 c 0.4,-4.532 0.6,-7.489 0.79,-14.793 h 0.39 c 2.38,4.335 8.89,16.179 25.66,16.179 27.82,0 27.82,-27.82 27.82,-34.531 v -67.48 h -11.44 v 67.871 c 0,6.914 0,23.488 -18.75,23.488 -14.01,0 -22.88,-13.223 -22.88,-28.809 v -62.55 h -11.45 v 69.453" /><path
         id="path98"
         style="fill:#9da2a9;fill-opacity:1;fill-rule:nonzero;stroke:none"
         d="m 2916.38,363.34 c 19.53,0 24.87,19.336 24.87,39.855 0,13.418 0,42.227 -24.67,42.227 -17.17,0 -23.09,-17.766 -23.09,-41.047 0,-8.281 0,-41.035 22.89,-41.035 z m 35.52,24.074 c 0,-15.793 0.39,-24.668 0.78,-33.351 h -10.65 v 13.808 h -0.39 c -7.5,-9.461 -13.81,-15.183 -26.44,-15.183 -32.75,0 -33.94,41.433 -33.94,55.437 0,19.141 8.09,47.949 33.34,47.949 12.83,0 20.33,-5.136 25.45,-14.402 h 0.4 v 60.371 h 11.45 V 387.414" /><path
         id="path100"
         style="fill:#9da2a9;fill-opacity:1;fill-rule:nonzero;stroke:none"
         d="m 3028.26,411.281 c 0,26.641 -11.25,34.141 -20.52,34.141 -15.59,0 -22.89,-21.113 -22.89,-34.141 z m -43.41,-10.656 c 0,-37.285 23.88,-37.285 28.42,-37.285 6.5,0 15.97,3.156 21.7,8.281 l 0.59,-13.211 c -4.73,-2.57 -11.44,-5.722 -23.48,-5.722 -39.47,0 -39.47,41.628 -39.47,51.687 0,37.883 18.75,51.699 35.72,51.699 29.2,0 32.16,-30.976 32.16,-55.449 h -55.64" /><path
         id="path102"
         style="fill:#9da2a9;fill-opacity:1;fill-rule:nonzero;stroke:none"
         d="m 3173.86,385.234 c 0,-10.457 0.59,-20.711 0.79,-31.171 H 3164 c -0.4,4.542 -0.6,7.5 -0.79,14.796 h -0.4 c -1.18,-4.336 -8.88,-16.171 -25.65,-16.171 -21.9,0 -27.82,15.781 -27.82,31.765 v 70.235 h 11.45 v -67.872 c 0,-6.902 0,-23.476 18.74,-23.476 14.01,0 22.89,13.215 22.89,28.801 v 62.547 h 11.44 v -69.454" /><path
         id="path104"
         style="fill:#9da2a9;fill-opacity:1;fill-rule:nonzero;stroke:none"
         d="m 3200.7,423.516 c 0,10.461 -0.6,20.714 -0.79,31.172 h 10.65 c 0.4,-4.532 0.6,-7.489 0.79,-14.793 h 0.39 c 2.38,4.335 8.89,16.179 25.66,16.179 27.82,0 27.82,-27.82 27.82,-34.531 v -67.48 h -11.45 v 67.871 c 0,6.914 0,23.488 -18.75,23.488 -14,0 -22.88,-13.223 -22.88,-28.809 v -62.55 h -11.44 v 69.453" /><path
         id="path106"
         style="fill:#9da2a9;fill-opacity:1;fill-rule:nonzero;stroke:none"
         d="m 3321.85,363.34 c 19.53,0 24.86,19.336 24.86,39.855 0,13.418 0,42.227 -24.66,42.227 -17.17,0 -23.09,-17.766 -23.09,-41.047 0,-8.281 0,-41.035 22.89,-41.035 z m 35.52,24.074 c 0,-15.793 0.39,-24.668 0.78,-33.351 h -10.65 v 13.808 h -0.4 c -7.5,-9.461 -13.8,-15.183 -26.43,-15.183 -32.75,0 -33.95,41.433 -33.95,55.437 0,19.141 8.1,47.949 33.35,47.949 12.83,0 20.33,-5.136 25.45,-14.402 h 0.4 v 60.371 h 11.45 V 387.414" /><path
         id="path108"
         style="fill:#9da2a9;fill-opacity:1;fill-rule:nonzero;stroke:none"
         d="m 3482.45,428.059 h 36.9 v -67.883 c -9.86,-5.321 -20.53,-7.488 -31.77,-7.488 -48.34,0 -60.18,45.378 -60.18,71.621 0,35.308 21.11,68.855 59.78,68.855 11.06,0 24.67,-4.336 28.81,-6.711 l -0.58,-13.418 c -5.34,4.153 -18.56,8.684 -29.01,8.684 -19.74,0 -45.98,-14.989 -45.98,-58.594 0,-25.262 11.45,-59.004 47.75,-59.004 7.11,0 12.64,0.793 18.94,4.152 v 48.34 h -24.66 v 11.446" /><path
         id="path110"
         style="fill:#9da2a9;fill-opacity:1;fill-rule:nonzero;stroke:none"
         d="m 3598.07,411.281 c 0,26.641 -11.25,34.141 -20.52,34.141 -15.58,0 -22.89,-21.113 -22.89,-34.141 z m -43.41,-10.656 c 0,-37.285 23.88,-37.285 28.42,-37.285 6.5,0 15.98,3.156 21.7,8.281 l 0.6,-13.211 c -4.74,-2.57 -11.45,-5.722 -23.49,-5.722 -39.46,0 -39.46,41.628 -39.46,51.687 0,37.883 18.75,51.699 35.71,51.699 29.21,0 32.17,-30.976 32.17,-55.449 h -55.65" /><path
         id="path112"
         style="fill:#9da2a9;fill-opacity:1;fill-rule:nonzero;stroke:none"
         d="m 3666.34,445.422 c -24.66,0 -24.66,-28.809 -24.66,-42.227 0,-20.519 5.33,-39.855 24.86,-39.855 22.89,0 22.89,32.754 22.89,41.035 0,23.281 -5.93,41.047 -23.09,41.047 z m -35.32,56.621 h 11.45 v -60.371 h 0.39 c 5.91,9.266 13.41,14.402 25.46,14.402 25.25,0 33.34,-28.808 33.34,-47.949 0,-14.004 -1.19,-55.437 -33.94,-55.437 -12.63,0 -19.34,5.722 -26.44,15.183 h -0.4 v -13.808 h -10.65 c 0.4,8.683 0.79,17.558 0.79,33.351 v 114.629" /><path
         id="path114"
         style="fill:#9da2a9;fill-opacity:1;fill-rule:nonzero;stroke:none"
         d="m 3787.69,385.234 c 0,-10.457 0.59,-20.711 0.79,-31.171 h -10.65 c -0.4,4.542 -0.6,7.5 -0.79,14.796 h -0.4 c -1.19,-4.336 -8.88,-16.171 -25.65,-16.171 -21.9,0 -27.82,15.781 -27.82,31.765 v 70.235 h 11.44 v -67.872 c 0,-6.902 0,-23.476 18.74,-23.476 14.02,0 22.9,13.215 22.9,28.801 v 62.547 h 11.44 v -69.454" /><path
         id="path116"
         style="fill:#9da2a9;fill-opacity:1;fill-rule:nonzero;stroke:none"
         d="m 3814.52,423.516 c 0,10.461 -0.6,20.714 -0.79,31.172 h 10.65 c 0.2,-5.918 0.6,-11.836 0.79,-15.977 h 0.39 c 7.31,14.406 15.79,17.363 26.84,17.363 V 443.84 c -18.16,0 -26.44,-7.891 -26.44,-26.438 v -63.339 h -11.44 v 69.453" /><path
         id="path118"
         style="fill:#9da2a9;fill-opacity:1;fill-rule:nonzero;stroke:none"
         d="m 3885.94,478.371 v -23.683 h 20.52 v -10.653 h -20.52 v -65.508 c 0,-8.086 1.39,-15.187 11.06,-15.187 5.32,0 7.29,1.183 9.46,2.168 v -11.445 c -2.76,-0.985 -7.89,-1.375 -13.21,-1.375 -14.81,0 -18.75,11.433 -18.75,22.683 v 68.664 h -14.99 v 10.653 h 14.99 v 20.128 l 11.44,3.555" /><path
         id="path120"
         style="fill:#9da2a9;fill-opacity:1;fill-rule:nonzero;stroke:none"
         d="m 3965.85,441.27 c -5.72,2.179 -10.65,4.152 -17.16,4.152 -11.84,0 -17.17,-8.879 -17.17,-15.988 0,-9.266 3.55,-11.239 17.17,-18.739 13.81,-7.5 24.47,-12.629 24.47,-28.808 0,-18.157 -12.83,-29.199 -29.8,-29.199 -12.43,0 -19.53,2.558 -25.45,4.726 l 1.58,12.832 c 3.35,-2.375 13.61,-6.906 22.89,-6.906 10.85,0 18.54,8.281 18.54,17.363 0,9.668 -6.11,13.613 -17.96,19.531 -16.96,8.489 -23.67,13.809 -23.67,28.02 0,18.945 16.18,27.82 29.59,27.82 6.71,0 14.81,-1.777 18.56,-2.957 l -1.59,-11.847" /><path
         id="path122"
         style="fill:#9da2a9;fill-opacity:1;fill-rule:nonzero;stroke:none"
         d="m 3993.68,502.043 h 11.44 v -62.148 h 0.39 c 1.98,4.335 8.88,16.179 24.87,16.179 27.82,0 27.82,-27.82 27.82,-34.531 v -67.48 h -11.45 v 67.871 c 0,6.914 0,23.488 -18.74,23.488 -14.01,0 -22.89,-13.223 -22.89,-28.809 v -62.55 h -11.44 v 147.98" /><path
         id="path124"
         style="fill:#9da2a9;fill-opacity:1;fill-rule:nonzero;stroke:none"
         d="m 4086.01,454.688 h 11.45 V 354.063 h -11.45 z m -1.18,40.058 h 13.81 v -17.762 h -13.81 v 17.762" /><path
         id="path126"
         style="fill:#9da2a9;fill-opacity:1;fill-rule:nonzero;stroke:none"
         d="m 4126.26,354.063 h 11.4492 v 147.98 H 4126.26 Z" /><path
         id="path128"
         style="fill:#9da2a9;fill-opacity:1;fill-rule:nonzero;stroke:none"
         d="m 4170.66,444.035 h -15.59 v 10.653 h 15.59 v 21.515 c 0,15.184 4.15,28.211 24.67,28.211 3.94,0 6.71,-0.594 8.68,-0.984 v -11.446 c -1.97,0.789 -5.14,1.778 -9.08,1.778 -10.06,0 -12.83,-7.309 -12.83,-15.391 v -23.683 h 17.77 v -10.653 h -17.77 v -89.972 h -11.44 v 89.972" /><path
         id="path130"
         style="fill:#9da2a9;fill-opacity:1;fill-rule:nonzero;stroke:none"
         d="m 4266.94,411.281 c 0,26.641 -11.25,34.141 -20.52,34.141 -15.58,0 -22.89,-21.113 -22.89,-34.141 z m -43.41,-10.656 c 0,-37.285 23.88,-37.285 28.42,-37.285 6.5,0 15.97,3.156 21.7,8.281 l 0.59,-13.211 c -4.73,-2.57 -11.44,-5.722 -23.48,-5.722 -39.47,0 -39.47,41.628 -39.47,51.687 0,37.883 18.75,51.699 35.72,51.699 29.21,0 32.17,-30.976 32.17,-55.449 h -55.65" /><path
         id="path132"
         style="fill:#be1e6e;fill-opacity:1;fill-rule:nonzero;stroke:none"
         d="M 1002.83,0.0117188 C 455.434,0.0117188 230.176,314.82 137.629,584.527 c 7.668,-6.363 15.582,-12.679 23.746,-18.968 12.711,-32.149 27.398,-64.649 44.363,-96.907 C 325.262,241.313 558.809,25.6719 1011.78,25.7617 c 1.9,0 3.78,0 5.67,0 81.63,0.3594 139.05,3.5977 176.23,9.7188 17.97,3.039 31.25,6.582 40.33,11.0312 C 1254.52,16.9531 1194.49,0.75 1008.45,0.0195313 1006.57,0.0117188 1004.7,0.0117188 1002.83,0.0117188 M 1017.36,30.8008 c -1.8,0 -3.68,0 -5.58,0 C 560.43,30.8906 329.219,244.91 210.148,470.992 194.613,500.504 181,530.223 169.066,559.703 488.398,319.047 1155.21,134.844 1230.82,50.5117 c -2.74,-1.2461 -5.9,-2.457 -9.52,-3.6015 -31.68,-10.0782 -96.92,-15.75 -203.94,-16.1094 M 137.629,584.527 C 34.3477,670.246 -22.2813,762.684 8.23438,860.043 7.05859,851.797 6.48047,843.578 6.48047,835.402 6.54688,763.137 51.2109,694.434 123.215,629.621 c 4.402,-14.828 9.207,-29.914 14.414,-45.094 m -17.125,54.375 c -2.899,2.676 -5.746,5.352 -8.543,8.039 -62.8204,60.301 -100.5313,123.391 -100.5313,188.461 0,17.996 2.875,36.207 8.9258,54.621 11.9765,24.165 29.4843,48.657 53.0859,73.36 0,0 -4.2773,-146.07 47.0626,-324.481" /><path
         id="path136"
         style="fill:#be1e6e;fill-opacity:1;fill-rule:nonzero;stroke:none"
         d="m 1017.45,25.7617 -5.9186,-3.231699 C 558.56041,22.440201 314.012,241.66456 194.488,469.00356 c -16.965,32.258 -20.402,64.40644 -33.113,96.55544 2.527,-1.946 5.117,-3.914 7.691,-5.856 C 181,530.223 198.59738,501.4415 214.13238,471.9295 333.20338,245.8475 560.43,36.028173 1011.78,35.938373 l 5.3314,-0.745777 c 107.02,0.3594 169.6912,4.415351 201.3712,14.493551 3.62,1.1445 9.5974,-0.420547 12.3374,0.825553 1.22,-1.3633 2.28,-2.6914 3.19,-4 -9.08,-4.4492 -21.7741,-12.269544 -39.7441,-15.308544 -37.18,-6.1211 -95.1859,-7.733706 -176.8159,-8.093106 M 123.215,629.621 c -2.27798,2.05048 -5.93616,2.69841 -8.16143,4.75629 C 46.941044,697.36666 5.2249286,765.23468 5.1606196,835.21345 c 0,8.176 1.8979704,16.58355 3.0737604,24.82955 3.12112,9.945 7.14062,19.934 12.12112,29.98 -6.0508,-18.414 -7.040299,-36.625 -7.040299,-54.621 0,-65.07 35.636849,-125.1432 98.457249,-185.4442 2.797,-2.687 5.83255,-8.3798 8.73155,-11.0558 0.887,-3.082 1.793,-6.183 2.711,-9.281"
         sodipodi:nodetypes="ccccccccccccccscccsccc" /></g></g></svg>
